# xmcd
#
# Track frame offsets:
#	150
#	16311
#	30949
#	48340
#	66814
#	83210
#	97033
#	112726
#	129579
#	146818
#	164215
#	181991
#	198561
#	213776
# Disc length: 3071 seconds
# Revision: 1
# Processed by: cddbd v1.5.2PL0 Copyright (c) Steve Scherf et al.
#
# Submitted via: libkcddb 0.31
#
DISCID=c00bfd0e
DTITLE=Boi Pirilampo - Arte Popular do Maranhão 2007
DYEAR=2007
DGENRE=Sertanejo
TTITLE0=Vovô - Boa Noite
TTITLE1=Godinho - Papel de Pão
TTITLE2=Batista - Se a Lua Não Existisse
TTITLE3=Vovô - Convite
TTITLE4=Godinho - Canário
TTITLE5=Vovô - Bem Querer
TTITLE6=Godinho - De Mãos Dadas Com As Estrelas
TTITLE7=Vovô - Sereia Encantada
TTITLE8=Vovô - Te Amo de Verdade
TTITLE9=Godinho - Natureza
TTITLE10=Vovô - Trovador
TTITLE11=Godinho - Bailarina
TTITLE12=Batista - Distante
TTITLE13=Godinho - Metade
EXTD=
EXTT0=RD e Nonato Silva
EXTT1=RD e Godinho
EXTT2=RD, Godinho e Veiga Neto
EXTT3=RD e Vovô
EXTT4=RD e Godinho
EXTT5=RD e Vovô
EXTT6=RD e Godinho
EXTT7=Gilvan da Mocidade
EXTT8=Gilvan da Mocidade e Vovô
EXTT9=RD e Godinho
EXTT10=Vovô
EXTT11=RD, Amós, Godinho e Zeca Barbosa
EXTT12=RD e Godinho
EXTT13=RD e Nonato Silva
PLAYORDER=
